<svg width="246" height="45" viewBox="0 0 246 45" fill="none" xmlns="http://www.w3.org/2000/svg">
<path d="M48.1125 43.9906L40.2139 44.0015L30.9833 15.575L21.7691 43.9961H13.9468L0 0.0929079H9.62905L18.09 29.8047L27.2659 0.0710449H35.0008L44.1168 29.8047L52.5777 0.0929079H61.972L48.1125 43.9906Z" fill="white"/>
<path d="M75.0018 44.3898C65.5802 44.3898 58.604 36.8922 58.604 27.5023V27.382C58.604 17.9922 65.6402 10.3742 75.1164 10.3742C84.5381 10.3742 91.5142 17.8719 91.5142 27.2617V27.382C91.5142 36.7664 84.478 44.3898 75.0018 44.3898ZM83.0042 27.3766C83.0042 22.5586 79.7727 18.3531 75.0018 18.3531C70.0672 18.3531 67.1141 22.4383 67.1141 27.2562V27.3766C67.1141 32.1945 70.3456 36.4 75.1164 36.4C80.0511 36.4 83.0042 32.3148 83.0042 27.4969V27.3766Z" fill="white"/>
<path d="M113.791 20.3874C108.059 20.3874 104.544 24.1062 104.544 31.9101V43.9796H95.9193V11.3039H104.544V17.8882C106.302 13.3765 109.14 10.4508 114.249 10.6968V20.3929H113.791V20.3874Z" fill="white"/>
<path d="M138.737 43.9304L130.565 30.1929L127.47 33.7039V43.9304H118.595V0H127.47V22.5367L137.864 10.3031H148.492L136.581 23.5375L148.901 43.925H138.737V43.9304Z" fill="white"/>
<path d="M162.744 44.3898C153.322 44.3898 146.346 36.8922 146.346 27.5023V27.382C146.346 17.9922 153.383 10.3742 162.859 10.3742C172.28 10.3742 179.257 17.8719 179.257 27.2617V27.382C179.257 36.7664 172.22 44.3898 162.744 44.3898ZM170.741 27.3766C170.741 22.5586 167.51 18.3531 162.739 18.3531C157.804 18.3531 154.851 22.4383 154.851 27.2562V27.3766C154.851 32.1945 158.082 36.4 162.853 36.4C167.788 36.4 170.741 32.3148 170.741 27.4969V27.3766Z" fill="#05D686"/>
<path d="M202.816 43.8703V25.6429C202.816 21.2515 200.889 18.9984 197.598 18.9984C194.306 18.9984 192.204 21.2515 192.204 25.6429V43.8703H183.58V11.1945H192.204V15.8265C194.191 13.0812 196.746 10.582 201.113 10.582C207.641 10.582 211.441 15.214 211.441 22.7171V43.8703H202.816Z" fill="#05D686"/>
<path d="M245.524 30.5484H224.356C225.207 34.7539 227.931 36.9523 231.79 36.9523C234.684 36.9523 236.785 35.9789 239.171 33.6L244.105 38.2976C241.267 42.0765 237.184 44.3953 231.676 44.3953C222.538 44.3953 215.786 37.5046 215.786 27.5078V27.3874C215.786 18.0577 221.97 10.3796 230.824 10.3796C240.983 10.3796 245.634 18.8562 245.634 28.1203V28.2406C245.639 29.1484 245.584 29.6953 245.524 30.5484ZM230.83 17.8062C227.254 17.8062 224.929 20.5515 224.247 24.757H237.238C236.731 20.6117 234.46 17.8062 230.83 17.8062Z" fill="#05D686"/>
</svg>
